<svg width="312" height="312" viewBox="0 0 312 312" fill="none" xmlns="http://www.w3.org/2000/svg">
<mask id="mask0_147_2250" style="mask-type:luminance" maskUnits="userSpaceOnUse" x="0" y="0" width="312" height="312">
<path d="M309.705 244.74L244.742 2.27303L2.29498 67.2417L67.2584 309.708L309.705 244.74Z" fill="white" stroke="white" stroke-width="3"/>
</mask>
<g mask="url(#mask0_147_2250)">
<path d="M193.567 145.531C196.932 158.091 182.778 172.797 161.953 178.377C141.128 183.958 121.518 178.3 118.153 165.74C114.788 153.18 128.942 138.474 149.767 132.894C170.592 127.313 190.202 132.972 193.567 145.531Z" fill="black" stroke="black" stroke-width="3" stroke-miterlimit="10" stroke-linecap="round" stroke-linejoin="round"/>
<path d="M232.275 135.159C239.095 160.612 210.411 190.414 168.208 201.723C126.005 213.032 86.2646 201.566 79.445 176.113C72.6254 150.66 101.309 120.858 143.512 109.549C185.715 98.24 225.455 109.706 232.275 135.159Z" stroke="#151418" stroke-width="3" stroke-miterlimit="10" stroke-linecap="round" stroke-linejoin="round"/>
<path d="M38.0216 187.213C36.5724 153.861 66.5941 119.9 120.235 105.526C173.877 91.1512 224.039 104.418 232.275 135.159" stroke="#151418" stroke-width="3" stroke-miterlimit="10" stroke-linecap="round" stroke-linejoin="round"/>
<path d="M273.782 124.036C277.461 160.16 245.191 191.354 191.527 205.735C137.862 220.115 87.6818 206.853 79.4455 176.113" stroke="#151418" stroke-width="3" stroke-miterlimit="10" stroke-linecap="round" stroke-linejoin="round"/>
<path d="M138.963 72.8711C138.963 72.8711 200.474 50.3121 258.125 92.9196" stroke="#151418" stroke-width="3" stroke-miterlimit="10" stroke-linecap="round" stroke-linejoin="round"/>
<path d="M172.53 239.246C172.53 239.246 111.019 261.805 53.3685 219.198" stroke="#151418" stroke-width="3" stroke-miterlimit="10" stroke-linecap="round" stroke-linejoin="round"/>
</g>
<g clip-path="url(#clip0_147_2250)">
<path d="M129.441 16.5225C129.441 17.4359 128.47 17.9668 127.556 17.9668C127.117 17.9668 126.696 17.7925 126.386 17.4823C126.076 17.1721 125.902 16.7514 125.902 16.3127C125.933 15.834 126.135 15.3824 126.471 15.0398C126.807 14.6972 127.254 14.4863 127.732 14.4452C128.647 14.4452 129.441 15.6092 129.441 16.5225ZM129.937 49.0669C129.937 50.3633 128.558 51.1165 127.262 51.1165C126.639 51.1165 126.042 50.8691 125.602 50.4288C125.161 49.9886 124.914 49.3914 124.914 48.7688C124.959 48.0893 125.246 47.4484 125.722 46.9621C126.199 46.4759 126.834 46.1766 127.513 46.1184C128.807 46.1184 129.937 47.7705 129.937 49.0669ZM83.1475 10.1135C83.1475 11.0189 82.1851 11.5448 81.2797 11.5448C80.8455 11.5448 80.4291 11.3723 80.1221 11.0653C79.8151 10.7582 79.6426 10.3418 79.6426 9.90758C79.6738 9.4331 79.874 8.98551 80.2068 8.64592C80.5396 8.30633 80.9831 8.09723 81.4568 8.05651C82.3617 8.05452 83.1475 9.20803 83.1475 10.1135ZM84.5187 17.9335C84.5187 18.6043 83.8058 18.9938 83.1351 18.9938C82.8131 18.9938 82.5044 18.8659 82.2767 18.6382C82.049 18.4105 81.9211 18.1017 81.9211 17.7797C81.9443 17.4284 82.0925 17.0969 82.3389 16.8455C82.5854 16.594 82.9138 16.4391 83.2646 16.4089C83.9353 16.4099 84.5187 17.2643 84.5187 17.9335ZM76.1605 24.2528C76.1605 24.9236 75.4471 25.313 74.7769 25.313C74.4549 25.313 74.1461 25.1851 73.9183 24.9575C73.6906 24.7298 73.5626 24.421 73.5625 24.099C73.5857 23.7475 73.734 23.416 73.9805 23.1645C74.227 22.9129 74.5555 22.758 74.9064 22.7277C75.5781 22.7277 76.1605 23.5825 76.1605 24.2528ZM90.2823 57.8882C90.2823 58.5585 89.5694 58.9479 88.8987 58.9479C88.7393 58.948 88.5814 58.9167 88.4341 58.8557C88.2868 58.7947 88.1529 58.7053 88.0402 58.5925C87.9274 58.4798 87.838 58.3459 87.777 58.1986C87.716 58.0513 87.6847 57.8934 87.6848 57.7339C87.7079 57.3825 87.8562 57.051 88.1027 56.7995C88.3493 56.548 88.6778 56.3932 89.0287 56.3631C89.6989 56.3631 90.2823 57.2174 90.2823 57.8882ZM78.6514 48.8457L79.0721 49.6147C79.1056 49.6758 79.1559 49.726 79.2169 49.7595L79.9854 50.1798C80.0427 50.2111 80.0906 50.2573 80.1239 50.3136C80.1572 50.3698 80.1748 50.4339 80.1748 50.4993C80.1748 50.5646 80.1572 50.6288 80.1239 50.685C80.0906 50.7412 80.0427 50.7874 79.9854 50.8188L79.2169 51.239C79.1559 51.2726 79.1056 51.3228 79.0721 51.3839L78.6514 52.1529C78.6201 52.2103 78.5739 52.2581 78.5178 52.2915C78.4616 52.3248 78.3975 52.3424 78.3321 52.3424C78.2668 52.3424 78.2027 52.3248 78.1465 52.2915C78.0903 52.2581 78.0442 52.2103 78.0129 52.1529L77.5922 51.3839C77.5589 51.3228 77.5088 51.2726 77.4479 51.239L76.6789 50.8188C76.6216 50.7874 76.5737 50.7412 76.5404 50.685C76.5071 50.6288 76.4895 50.5646 76.4895 50.4993C76.4895 50.4339 76.5071 50.3698 76.5404 50.3136C76.5737 50.2573 76.6216 50.2111 76.6789 50.1798L77.4479 49.7595C77.5088 49.726 77.5589 49.6757 77.5922 49.6147L78.0129 48.8457C78.0442 48.7883 78.0903 48.7404 78.1465 48.7071C78.2027 48.6737 78.2668 48.6561 78.3321 48.6561C78.3975 48.6561 78.4616 48.6737 78.5178 48.7071C78.5739 48.7404 78.6201 48.7883 78.6514 48.8457ZM117.932 9.46156L118.373 10.2683C118.408 10.3322 118.46 10.3849 118.524 10.4201L119.331 10.8612C119.391 10.8941 119.441 10.9425 119.476 11.0015C119.511 11.0605 119.53 11.1277 119.53 11.1963C119.53 11.2648 119.511 11.3321 119.476 11.3911C119.441 11.4501 119.391 11.4985 119.331 11.5314L118.524 11.9725C118.46 12.0075 118.408 12.0602 118.373 12.1243L117.932 12.9305C117.899 12.9907 117.85 13.0408 117.791 13.0758C117.732 13.1107 117.665 13.1292 117.596 13.1292C117.528 13.1292 117.461 13.1107 117.402 13.0758C117.343 13.0408 117.294 12.9907 117.261 12.9305L116.82 12.1243C116.786 12.06 116.733 12.0073 116.669 11.9725L115.86 11.5334C115.8 11.5005 115.75 11.452 115.715 11.3931C115.68 11.3341 115.661 11.2668 115.661 11.1983C115.661 11.1297 115.68 11.0624 115.715 11.0035C115.75 10.9445 115.8 10.896 115.86 10.8631L116.666 10.4221C116.73 10.3872 116.783 10.3344 116.818 10.2703L117.259 9.46354C117.292 9.40284 117.34 9.35208 117.399 9.31663C117.458 9.28118 117.526 9.26236 117.595 9.26216C117.664 9.26195 117.731 9.28037 117.791 9.31547C117.85 9.35057 117.899 9.40105 117.932 9.46156ZM128.102 26.5836C127.414 25.2808 125.799 24.4949 124.321 24.1387C124.045 22.5962 121.549 21.077 118.507 19.2314C117.859 18.8385 117.21 18.4451 116.596 18.0561L116.039 17.7009C113.589 16.1346 110.587 14.219 106.365 14.3083C106.744 12.804 106.718 11.2264 106.291 9.73531C105.863 8.2442 105.049 6.89265 103.931 5.81764C102.813 4.74264 101.43 3.98241 99.9234 3.61402C98.4167 3.24562 96.8394 3.28217 95.3514 3.71994C93.8634 4.15771 92.5176 4.98115 91.4504 6.10678C90.3832 7.23242 89.6325 8.62023 89.2745 10.1295C88.9165 11.6388 88.9638 13.216 89.4118 14.7011C89.8597 16.1862 90.6923 17.5264 91.8252 18.586C86.8786 21.8237 79.4734 30.4857 79.9804 34.0356C78.5254 35.4605 77.7232 37.1885 77.8824 38.6367C77.9207 39.0688 78.0649 39.4847 78.3024 39.8477C78.5398 40.2107 78.8632 40.5094 79.2437 40.7175C80.1982 41.2459 81.7272 40.9591 82.5899 40.5885C82.7595 40.7737 82.9668 40.9204 83.1978 41.0188C83.4289 41.1172 83.6783 41.165 83.9293 41.1591C84.1946 41.1598 84.4569 41.1038 84.6988 40.9948C85.8398 40.4794 86.1434 38.2582 86.1682 37.0064C87.6287 36.489 88.9424 34.621 90.4291 32.501C91.0388 31.6313 91.6654 30.7447 92.3222 29.9117C92.8962 31.9955 93.5074 33.9716 93.9956 35.5483C94.447 37.0039 94.9128 38.5092 94.9312 38.8034C94.8816 43.4254 95.2864 50.916 96.1759 52.9576C97.2763 55.2111 98.5536 57.3737 99.9958 59.4252C100.418 60.0335 100.592 60.7803 100.481 61.5125C100.105 63.8939 100.882 65.4979 102.614 65.9162C103.151 66.0514 103.702 66.122 104.256 66.1265C105.093 66.1508 105.918 65.9226 106.624 65.4716C107.053 65.176 107.416 64.7937 107.688 64.3493C107.961 63.905 108.137 63.4084 108.206 62.8917L108.237 62.6848C108.412 61.5715 108.609 60.3098 108.25 59.0938C107.991 58.2142 107.59 57.1093 107.165 55.9389C106.411 53.8591 105.556 51.5015 105.424 50.1644C105.297 48.8834 105.771 45.0904 105.969 43.6799C105.986 43.6084 106.023 43.5433 106.076 43.4923C106.128 43.4413 106.195 43.4067 106.267 43.3927C106.339 43.3793 106.414 43.3861 106.483 43.4123C106.552 43.4386 106.612 43.4833 106.657 43.5415C106.919 44.0996 108.671 47.8479 109.043 49.1974C109.272 50.2548 109.41 51.3299 109.455 52.4109C109.529 54.1305 109.783 55.8376 110.213 57.5042C110.575 58.7509 111.038 59.9655 111.599 61.1359C111.888 61.6224 112.273 62.0441 112.732 62.3745C113.191 62.7049 113.713 62.9369 114.265 63.0559C115.018 63.2098 115.794 63.2068 116.545 63.0471C117.296 62.8875 118.006 62.5747 118.631 62.1282C118.942 61.9184 119.204 61.6423 119.396 61.3199C119.588 60.9974 119.707 60.6364 119.743 60.2627C119.785 59.5804 119.691 58.8965 119.468 58.2505C119.245 57.6044 118.896 57.0087 118.442 56.4975C118.183 56.2771 117.987 55.9923 117.873 55.6717C117.759 55.3512 117.731 55.0063 117.793 54.6718C118.319 52.1847 118.824 48.5281 118.739 47.0472C118.605 44.7074 116.33 38.9443 114.289 35.0303C113.771 34.0381 113.138 30.9397 112.468 27.6603C112.306 26.8661 112.142 26.0723 111.977 25.2788C112.735 25.7644 113.491 26.2532 114.245 26.7454C117.262 28.7116 118.927 29.7971 120.232 29.7971C120.244 29.7971 120.255 29.7941 120.267 29.7936C120.669 30.709 121.266 31.5253 122.017 32.1855C122.361 32.4488 122.784 32.5872 123.217 32.5779C123.513 32.5864 123.807 32.535 124.082 32.4269C124.357 32.3188 124.607 32.1562 124.817 31.9488C125.004 31.6652 125.115 31.3391 125.142 31.0007C125.152 30.9387 125.165 30.8588 125.179 30.7909C125.289 30.7472 125.434 30.6916 125.561 30.6475C126.811 30.1876 127.793 29.7787 128.13 29.0638C128.324 28.6785 128.423 28.2519 128.418 27.8203C128.414 27.3886 128.305 26.9645 128.102 26.5836ZM90.0754 14.3177C89.2286 11.2943 92.0137 7.87095 96.2955 6.6713C100.577 5.47165 104.735 6.95013 105.582 9.97357C106.429 12.997 103.644 16.4203 99.3618 17.6195C95.0795 18.8186 90.9223 17.3407 90.0754 14.3177ZM104.131 46.4384C102.321 44.5988 99.1113 44.4822 96.5877 45.3469C96.5579 44.8443 96.5311 44.3323 96.5088 43.8174C99.023 43.0622 102.112 43.0989 104.336 44.6692C104.262 45.2582 104.193 45.848 104.131 46.4384ZM104.636 29.0152L100.774 30.0973C100.532 30.1652 100.279 30.1847 100.029 30.1547C99.7791 30.1247 99.5377 30.0457 99.3184 29.9224C99.0991 29.7991 98.9062 29.6337 98.7509 29.4358C98.5955 29.238 98.4806 29.0114 98.4128 28.7691L97.6379 26.0017C97.5698 25.7594 97.5501 25.506 97.5799 25.2561C97.6098 25.0062 97.6886 24.7646 97.8119 24.5452C97.9352 24.3257 98.1006 24.1328 98.2985 23.9773C98.4964 23.8218 98.7231 23.7069 98.9654 23.6391L102.828 22.557C103.07 22.4891 103.324 22.4696 103.573 22.4996C103.823 22.5296 104.065 22.6085 104.284 22.7319C104.503 22.8552 104.696 23.0205 104.851 23.2184C105.007 23.4163 105.122 23.6429 105.189 23.8852L105.964 26.6521C106.032 26.8945 106.052 27.1479 106.022 27.3979C105.992 27.6479 105.913 27.8895 105.79 28.109C105.667 28.3284 105.501 28.5214 105.303 28.6769C105.105 28.8324 104.879 28.9474 104.636 29.0152ZM100.429 21.4362C99.0587 21.821 97.6196 21.8955 96.2165 21.6546C94.8134 21.4136 93.4816 20.8631 92.3178 20.0431C92.5743 19.8719 92.8288 19.7092 93.0788 19.5614C93.2276 19.6561 93.371 19.7549 93.5253 19.8417C95.5585 20.9852 97.9628 21.2742 100.209 20.645C102.455 20.0159 104.36 18.5201 105.503 16.4868C105.626 16.268 105.734 16.0443 105.837 15.819C106.138 15.7998 106.439 15.7915 106.74 15.7942C106.19 17.155 105.335 18.3713 104.241 19.3495C103.147 20.3277 101.843 21.0416 100.429 21.4362ZM115.054 40.1832C115.263 40.6793 115.462 41.171 115.65 41.6517C114.459 41.493 110.512 42.776 109.041 45.1688C108.811 44.6524 108.578 44.1376 108.341 43.6244C110.098 41.7142 112.478 40.4939 115.054 40.1832ZM110.113 16.4253L110.118 16.4203C111.605 16.9619 113.034 17.6499 114.385 18.4743C112.326 20.8558 110.51 17.8343 110.113 16.4253Z" fill="#151418"/>
</g>
<defs>
<clipPath id="clip0_147_2250">
<rect width="63.5" height="63.5052" fill="white" transform="translate(70.8521 3)"/>
</clipPath>
</defs>
</svg>
