<svg width="313" height="321" viewBox="0 0 313 321" fill="none" xmlns="http://www.w3.org/2000/svg">
<mask id="mask0_147_2387" style="mask-type:luminance" maskUnits="userSpaceOnUse" x="0" y="9" width="313" height="312">
<path d="M310.205 253.74L245.241 11.273L2.79475 76.2417L67.7582 318.708L310.205 253.74Z" fill="white" stroke="white" stroke-width="3"/>
</mask>
<g mask="url(#mask0_147_2387)">
<path d="M194.067 154.531C197.432 167.091 183.278 181.797 162.453 187.377C141.628 192.958 122.018 187.299 118.653 174.74C115.288 162.18 129.442 147.474 150.267 141.894C171.092 136.313 190.702 141.971 194.067 154.531Z" fill="black" stroke="black" stroke-width="3" stroke-miterlimit="10" stroke-linecap="round" stroke-linejoin="round"/>
<path d="M232.775 144.158C239.594 169.612 210.911 199.413 168.708 210.722C126.505 222.031 86.7644 210.566 79.9448 185.112C73.1252 159.659 101.809 129.858 144.012 118.549C186.215 107.239 225.955 118.705 232.775 144.158Z" stroke="#151418" stroke-width="3" stroke-miterlimit="10" stroke-linecap="round" stroke-linejoin="round"/>
<path d="M38.5214 196.213C37.0721 162.861 67.0938 128.9 120.735 114.525C174.377 100.151 224.538 113.418 232.775 144.159" stroke="#151418" stroke-width="3" stroke-miterlimit="10" stroke-linecap="round" stroke-linejoin="round"/>
<path d="M274.282 133.036C277.96 169.16 245.691 200.354 192.027 214.735C138.362 229.115 88.1816 215.853 79.9453 185.113" stroke="#151418" stroke-width="3" stroke-miterlimit="10" stroke-linecap="round" stroke-linejoin="round"/>
<path d="M139.463 81.8709C139.463 81.8709 200.974 59.3119 258.624 101.919" stroke="#151418" stroke-width="3" stroke-miterlimit="10" stroke-linecap="round" stroke-linejoin="round"/>
<path d="M173.03 248.246C173.03 248.246 111.519 270.805 53.8683 228.198" stroke="#151418" stroke-width="3" stroke-miterlimit="10" stroke-linecap="round" stroke-linejoin="round"/>
</g>
<g clip-path="url(#clip0_147_2387)">
<path d="M89.1398 39.0211C88.0358 39.6586 87.1561 40.5251 86.4763 41.5109L81.5987 39.524L90.2643 34.5209C91.0625 34.0601 91.3355 33.0413 90.8746 32.243L86.7058 25.0224L88.2462 24.1331C89.0444 23.6722 89.3174 22.6534 88.8566 21.8552C88.3957 21.057 87.3769 20.784 86.5787 21.2448L70.597 30.4718L68.6648 27.125C69.9967 25.5585 70.2909 23.2714 69.2053 21.3911C68.8203 20.7242 68.2958 20.1945 67.6995 19.7857L69.4789 13.1448C70.8747 13.7341 72.5144 13.7041 73.9246 12.8899L76.8129 11.2224C77.6111 10.7615 77.8841 9.74272 77.4232 8.94451C76.9624 8.14629 75.9436 7.8733 75.1453 8.33415L72.2571 10.0017C71.4603 10.4617 70.4392 10.1881 69.9792 9.39132C69.5192 8.59455 69.7928 7.57345 70.5896 7.11343L73.4778 5.4459C74.276 4.98505 74.549 3.96623 74.0882 3.16801C73.6273 2.3698 72.6085 2.09681 71.8103 2.55766L68.922 4.22519C66.7608 5.473 65.9007 8.09643 66.7741 10.3549L64.4784 18.9226C63.7575 18.9785 63.0385 19.175 62.3716 19.56C59.9827 20.9393 59.1613 24.0048 60.5406 26.3937C61.6261 28.274 63.7539 29.1628 65.7765 28.7926L67.7088 32.1394L40.1742 48.0365C39.376 48.4973 39.103 49.5161 39.5638 50.3144C40.0247 51.1126 41.0435 51.3856 41.8417 50.9247L43.3821 50.0354L47.5509 57.256C48.0118 58.0542 49.0306 58.3272 49.8288 57.8664L58.4944 52.8633L57.7763 58.0808C56.5827 58.1767 55.3924 58.5052 54.2883 59.1427C50.3071 61.4412 48.9379 66.5508 51.2365 70.5321C53.5351 74.5134 58.6447 75.8825 62.626 73.5839C66.6072 71.2853 67.9763 66.1757 65.6778 62.1944C64.6188 60.3602 62.9522 59.1113 61.085 58.4893L62.1032 50.7797L68.6024 47.0274L70.3543 50.0618C67.45 52.6332 66.6492 56.9846 68.6623 60.4713C70.9609 64.4526 76.0705 65.8217 80.0517 63.5231C84.033 61.2245 85.4021 56.1149 83.1035 52.1337C81.0905 48.647 76.9217 47.1647 73.2426 48.3943L71.4907 45.3599L77.9899 41.6075L85.1757 44.5805C84.7808 46.5086 85.0291 48.5763 86.088 50.4106C88.3866 54.3918 93.4962 55.7609 97.4775 53.4624C101.459 51.1638 102.828 46.0542 100.529 42.0729C98.2307 38.0917 93.1211 36.7225 89.1398 39.0211ZM59.2909 67.8074C58.4934 68.2679 57.4735 67.9946 57.013 67.197C56.5524 66.3993 56.8258 65.3796 57.6234 64.9191C58.4209 64.4587 59.4407 64.7318 59.9013 65.5295C60.3617 66.327 60.0885 67.3469 59.2909 67.8074ZM76.7167 57.7466C75.9191 58.2071 74.8992 57.9338 74.4388 57.1363C73.9782 56.3385 74.2516 55.3188 75.0491 54.8584C75.8467 54.3979 76.8665 54.671 77.327 55.4687C77.7875 56.2663 77.5142 57.2862 76.7167 57.7466ZM94.1424 47.6859C93.3449 48.1463 92.325 47.873 91.8645 47.0755C91.404 46.2778 91.6774 45.2581 92.4749 44.7976C93.2724 44.3372 94.2922 44.6102 94.7528 45.408C95.2132 46.2055 94.94 47.2254 94.1424 47.6859Z" fill="#151418"/>
<path d="M34.7098 31.6795L36.154 30.8458L36.9877 32.2899C37.4486 33.0881 38.4674 33.3611 39.2656 32.9003L43.598 30.399L47.0442 36.368L45.6001 37.2018C43.7199 38.2873 42.831 40.4151 43.2013 42.4377L57.1105 34.4072C55.5439 33.0753 53.2568 32.7812 51.3766 33.8667L49.9325 34.7005L46.4862 28.7314L50.8186 26.2301C51.6168 25.7693 51.8898 24.7505 51.429 23.9523L50.5952 22.5081L52.0393 21.6744C52.8375 21.2135 53.1105 20.1947 52.6497 19.3965C52.1888 18.5983 51.17 18.3253 50.3718 18.7861L48.9277 19.6199L48.0939 18.1758C47.6331 17.3775 46.6142 17.1046 45.816 17.5654L34.263 24.2355C33.4648 24.6964 33.1918 25.7152 33.6527 26.5134L34.4864 27.9575L33.0423 28.7913C32.2441 29.2521 31.9711 30.271 32.432 31.0692C32.8928 31.8674 33.9116 32.1404 34.7098 31.6795Z" fill="#151418"/>
</g>
<defs>
<clipPath id="clip0_147_2387">
<rect width="56.9184" height="56.9184" fill="white" transform="translate(26.9462 28.46) rotate(-30)"/>
</clipPath>
</defs>
</svg>
