<svg width="313" height="321" viewBox="0 0 313 321" fill="none" xmlns="http://www.w3.org/2000/svg">
<mask id="mask0_147_3038" style="mask-type:luminance" maskUnits="userSpaceOnUse" x="0" y="9" width="313" height="312">
<path d="M310.205 253.74L245.241 11.273L2.7945 76.2417L67.7579 318.708L310.205 253.74Z" fill="white" stroke="white" stroke-width="3"/>
</mask>
<g mask="url(#mask0_147_3038)">
<path d="M194.066 154.531C197.431 167.091 183.278 181.797 162.452 187.377C141.627 192.958 122.018 187.299 118.652 174.74C115.287 162.18 129.441 147.474 150.266 141.894C171.091 136.313 190.701 141.971 194.066 154.531Z" fill="black" stroke="black" stroke-width="3" stroke-miterlimit="10" stroke-linecap="round" stroke-linejoin="round"/>
<path d="M232.775 144.158C239.594 169.612 210.91 199.413 168.708 210.722C126.505 222.031 86.7642 210.566 79.9446 185.112C73.125 159.659 101.809 129.858 144.012 118.549C186.214 107.239 225.955 118.705 232.775 144.158Z" stroke="#F5F5F5" stroke-width="3" stroke-miterlimit="10" stroke-linecap="round" stroke-linejoin="round"/>
<path d="M38.521 196.213C37.0718 162.861 67.0934 128.9 120.735 114.525C174.377 100.151 224.538 113.418 232.774 144.159" stroke="#F5F5F5" stroke-width="3" stroke-miterlimit="10" stroke-linecap="round" stroke-linejoin="round"/>
<path d="M274.282 133.036C277.96 169.16 245.691 200.354 192.026 214.735C138.362 229.115 88.1812 215.853 79.945 185.113" stroke="#F5F5F5" stroke-width="3" stroke-miterlimit="10" stroke-linecap="round" stroke-linejoin="round"/>
<path d="M139.463 81.8709C139.463 81.8709 200.974 59.3119 258.624 101.919" stroke="#F5F5F5" stroke-width="3" stroke-miterlimit="10" stroke-linecap="round" stroke-linejoin="round"/>
<path d="M173.029 248.246C173.029 248.246 111.518 270.805 53.8677 228.198" stroke="#F5F5F5" stroke-width="3" stroke-miterlimit="10" stroke-linecap="round" stroke-linejoin="round"/>
</g>
<g clip-path="url(#clip0_147_3038)">
<path d="M89.1395 39.0211C88.0354 39.6586 87.1557 40.5251 86.4759 41.5109L81.5983 39.524L90.2639 34.5209C91.0621 34.0601 91.3351 33.0413 90.8743 32.243L86.7054 25.0224L88.2458 24.1331C89.0441 23.6722 89.317 22.6534 88.8562 21.8552C88.3954 21.057 87.3765 20.784 86.5783 21.2448L70.5967 30.4718L68.6644 27.125C69.9964 25.5585 70.2905 23.2714 69.2049 21.3911C68.8199 20.7242 68.2955 20.1945 67.6991 19.7857L69.4786 13.1448C70.8744 13.7341 72.514 13.7041 73.9243 12.8899L76.8125 11.2224C77.6107 10.7615 77.8837 9.74272 77.4229 8.94451C76.962 8.14629 75.9432 7.8733 75.145 8.33415L72.2567 10.0017C71.46 10.4617 70.4388 10.1881 69.9788 9.39132C69.5188 8.59455 69.7924 7.57345 70.5892 7.11343L73.4774 5.4459C74.2757 4.98505 74.5486 3.96623 74.0878 3.16801C73.6269 2.3698 72.6081 2.09681 71.8099 2.55766L68.9217 4.22519C66.7604 5.473 65.9004 8.09643 66.7738 10.3549L64.478 18.9226C63.7572 18.9785 63.0382 19.175 62.3713 19.56C59.9823 20.9393 59.1609 24.0048 60.5402 26.3937C61.6257 28.274 63.7535 29.1628 65.7762 28.7926L67.7084 32.1394L40.1738 48.0365C39.3756 48.4973 39.1026 49.5161 39.5634 50.3144C40.0243 51.1126 41.0431 51.3856 41.8413 50.9247L43.3817 50.0354L47.5506 57.256C48.0114 58.0542 49.0302 58.3272 49.8284 57.8664L58.4941 52.8633L57.776 58.0808C56.5823 58.1767 55.392 58.5052 54.288 59.1427C50.3067 61.4412 48.9376 66.5508 51.2362 70.5321C53.5347 74.5134 58.6443 75.8825 62.6256 73.5839C66.6069 71.2853 67.976 66.1757 65.6774 62.1944C64.6184 60.3602 62.9518 59.1113 61.0846 58.4893L62.1028 50.7797L68.6021 47.0274L70.354 50.0618C67.4496 52.6332 66.6489 56.9846 68.6619 60.4713C70.9605 64.4526 76.0701 65.8217 80.0514 63.5231C84.0326 61.2245 85.4017 56.1149 83.1032 52.1337C81.0901 48.647 76.9213 47.1647 73.2422 48.3943L71.4903 45.3599L77.9895 41.6075L85.1753 44.5805C84.7804 46.5086 85.0287 48.5763 86.0877 50.4106C88.3863 54.3918 93.4959 55.7609 97.4771 53.4624C101.458 51.1638 102.827 46.0542 100.529 42.0729C98.2303 38.0917 93.1207 36.7225 89.1395 39.0211ZM59.2905 67.8074C58.493 68.2679 57.4731 67.9946 57.0127 67.197C56.5521 66.3993 56.8255 65.3796 57.623 64.9191C58.4206 64.4587 59.4403 64.7318 59.9009 65.5295C60.3614 66.327 60.0881 67.3469 59.2905 67.8074ZM76.7163 57.7466C75.9188 58.2071 74.8989 57.9338 74.4384 57.1363C73.9778 56.3385 74.2512 55.3188 75.0488 54.8584C75.8463 54.3979 76.8661 54.671 77.3267 55.4687C77.7871 56.2663 77.5138 57.2862 76.7163 57.7466ZM94.1421 47.6859C93.3445 48.1463 92.3246 47.873 91.8642 47.0755C91.4036 46.2778 91.677 45.2581 92.4745 44.7976C93.2721 44.3372 94.2918 44.6102 94.7524 45.408C95.2129 46.2055 94.9396 47.2254 94.1421 47.6859Z" fill="#F5F5F5"/>
<path d="M34.7094 31.6795L36.1535 30.8458L36.9872 32.2899C37.4481 33.0881 38.4669 33.3611 39.2651 32.9003L43.5975 30.399L47.0437 36.368L45.5996 37.2018C43.7194 38.2873 42.8305 40.4151 43.2008 42.4377L57.11 34.4072C55.5435 33.0753 53.2564 32.7812 51.3761 33.8667L49.932 34.7005L46.4858 28.7314L50.8181 26.2301C51.6163 25.7693 51.8893 24.7505 51.4285 23.9523L50.5947 22.5081L52.0388 21.6744C52.8371 21.2135 53.11 20.1947 52.6492 19.3965C52.1884 18.5983 51.1695 18.3253 50.3713 18.7861L48.9272 19.6199L48.0934 18.1758C47.6326 17.3775 46.6137 17.1046 45.8155 17.5654L34.2625 24.2355C33.4643 24.6964 33.1913 25.7152 33.6522 26.5134L34.486 27.9575L33.0418 28.7913C32.2436 29.2521 31.9706 30.271 32.4315 31.0692C32.8923 31.8674 33.9111 32.1404 34.7094 31.6795Z" fill="#F5F5F5"/>
</g>
<defs>
<clipPath id="clip0_147_3038">
<rect width="56.9184" height="56.9184" fill="white" transform="translate(26.9458 28.46) rotate(-30)"/>
</clipPath>
</defs>
</svg>
