<svg width="16" height="16" viewBox="0 0 16 16" fill="none" xmlns="http://www.w3.org/2000/svg">
<path d="M7.96423 3.68018C7.39935 4.24903 7.08295 5.01858 7.08436 5.82025C7.08576 6.62193 7.40485 7.39036 7.97172 7.95723C8.53859 8.5241 9.30702 8.84319 10.1087 8.84459C10.9104 8.846 11.6799 8.5296 12.2488 7.96472C12.2488 8.81212 11.9975 9.64049 11.5267 10.3451C11.0559 11.0497 10.3868 11.5988 9.60386 11.9231C8.82096 12.2474 7.95948 12.3323 7.12836 12.1669C6.29724 12.0016 5.53381 11.5936 4.9346 10.9943C4.3354 10.3951 3.92734 9.63171 3.76202 8.80059C3.5967 7.96947 3.68154 7.10799 4.00583 6.32509C4.33012 5.5422 4.87928 4.87304 5.58387 4.40225C6.28846 3.93146 7.11683 3.68018 7.96423 3.68018Z" stroke="#F5F5F5" stroke-width="1.5" stroke-linecap="round" stroke-linejoin="round"/>
</svg>
