<svg width="44" height="44" viewBox="0 0 44 44" fill="none" xmlns="http://www.w3.org/2000/svg">
<path d="M34.9562 10.1256C34.1842 9.35682 33.2669 8.74685 32.2569 8.33064C31.2468 7.91444 30.164 7.7002 29.0703 7.7002C27.9767 7.7002 26.8938 7.91444 25.8838 8.33064C24.8737 8.74685 23.9564 9.35682 23.1845 10.1256L21.9996 11.3167L20.8147 10.1256C20.0428 9.35682 19.1255 8.74685 18.1154 8.33064C17.1054 7.91444 16.0225 7.7002 14.9289 7.7002C13.8353 7.7002 12.7524 7.91444 11.7423 8.33064C10.7323 8.74685 9.81502 9.35682 9.04304 10.1256C5.78082 13.363 5.58078 18.8299 9.68933 22.9836L21.9996 35.2002L34.3099 22.9836C38.4184 18.8299 38.2184 13.363 34.9562 10.1256Z" stroke="#E8432D" stroke-width="2" stroke-linecap="round" stroke-linejoin="round"/>
</svg>
